<svg
  xmlns="http://www.w3.org/2000/svg"
  width="14"
  height="18"
  viewBox="0 0 24 24"
  fill="none"
>
  <path
    d="M16.87 2.13C17.27 2.53 17.27 3.17 16.87 3.57L12.54 7.9C12.2 8.24 11.74 8.24 11.4 7.9L8.03 4.52C7.63 4.12 7.63 3.48 8.03 3.08C8.43 2.68 9.07 2.68 9.47 3.08L12 5.61L14.53 3.08C14.93 2.68 15.57 2.68 16.87 2.13ZM12 19C8.69 19 6 16.31 6 13C6 9.69 8.69 7 12 7C15.31 7 18 9.69 18 13C18 16.31 15.31 19 12 19ZM12 15C11.45 15 11 14.55 11 14C11 13.45 11.45 13 12 13C12.55 13 13 13.45 13 14C13 14.55 12.55 15 12 15ZM12 9C9.79 9 8 10.79 8 13C8 15.21 9.79 17 12 17C14.21 17 16 15.21 16 13C16 10.79 14.21 9 12 9Z"
    fill="white"
    fillOpacity="0.8"
  />
</svg>
