<svg width="99" height="86" viewBox="0 0 99 86" fill="none" xmlns="http://www.w3.org/2000/svg">
<g clip-path="url(#clip0_1_839)">
<g clip-path="url(#clip1_1_839)">
<g clip-path="url(#clip2_1_839)">
<g clip-path="url(#clip3_1_839)">
<g filter="url(#filter0_di_1_839)">
<g filter="url(#filter1_di_1_839)">
<path fill-rule="evenodd" clip-rule="evenodd" d="M7.56953 35.0441C7.6222 35.1398 7.73659 35.1799 7.82959 35.2372L8.66583 35.7527C8.70722 35.7793 8.74127 35.8159 8.76485 35.8591C8.78842 35.9023 8.80078 35.9508 8.80078 36C8.80078 36.0492 8.78842 36.0977 8.76485 36.1409C8.74127 36.1841 8.70722 36.2207 8.66583 36.2473L7.68985 36.7821C7.63866 36.8029 7.59617 36.8407 7.56953 36.8891L7.04811 37.865C7.02147 37.9064 6.98487 37.9405 6.94166 37.9641C6.89845 37.9876 6.85001 38 6.80078 38C6.75155 38 6.70311 37.9876 6.6599 37.9641C6.61669 37.9405 6.58008 37.9064 6.55344 37.865L6.01867 36.8891C5.99405 36.8439 5.95691 36.8067 5.91171 36.7821L4.93573 36.2473C4.89434 36.2207 4.86029 36.1841 4.83671 36.1409C4.81313 36.0977 4.80078 36.0492 4.80078 36C4.80078 35.9508 4.81313 35.9023 4.83671 35.8591C4.86029 35.8159 4.89434 35.7793 4.93573 35.7527L5.91171 35.2179C5.95691 35.1933 5.99405 35.1561 6.01867 35.1109L6.55344 34.1349C6.58008 34.0936 6.61669 34.0595 6.6599 34.0359C6.70311 34.0123 6.75155 34 6.80078 34C6.85001 34 6.89845 34.0123 6.94166 34.0359C6.98487 34.0595 7.02147 34.0936 7.04811 34.1349L7.56953 35.0441ZM10.2278 43.7237L13.1843 45.2892C13.3203 45.3659 13.4328 45.4782 13.5095 45.6141L15.0765 48.5678C15.1436 48.698 15.2453 48.8072 15.3705 48.8834C15.4957 48.9597 15.6394 49 15.786 49C15.9326 49 16.0764 48.9597 16.2015 48.8834C16.3267 48.8072 16.4284 48.698 16.4956 48.5678L18.0921 45.6141C18.1218 45.541 18.1659 45.4745 18.2218 45.4187C18.2776 45.3629 18.3441 45.3189 18.4173 45.2892L21.3737 43.7237C21.5031 43.6522 21.611 43.5473 21.6861 43.42C21.7612 43.2928 21.8008 43.1477 21.8008 43C21.8008 42.8523 21.7612 42.7072 21.6861 42.58C21.611 42.4527 21.5031 42.3479 21.3737 42.2763L18.4173 40.7108C18.2813 40.6341 18.1688 40.5218 18.0921 40.3859L16.4956 37.4322C16.4284 37.302 16.3267 37.1928 16.2015 37.1166C16.0764 37.0403 15.9326 37 15.786 37C15.6394 37 15.4957 37.0403 15.3705 37.1166C15.2453 37.1928 15.1436 37.302 15.0765 37.4322L13.6173 40.1828C13.5458 40.3175 13.4547 40.4407 13.3469 40.5484C13.2391 40.6561 13.1159 40.7471 12.9812 40.8184L10.2278 42.2763C10.0984 42.3479 9.99059 42.4527 9.91549 42.58C9.84039 42.7072 9.80078 42.8523 9.80078 43C9.80078 43.1477 9.84039 43.2928 9.91549 43.42C9.99059 43.5473 10.0984 43.6522 10.2278 43.7237ZM8.34399 47.8558C8.2045 47.7698 8.03291 47.7097 7.9539 47.5661L7.17178 46.2024C7.13182 46.1403 7.07692 46.0893 7.0121 46.0539C6.94728 46.0185 6.87462 46 6.80078 46C6.72694 46 6.65428 46.0185 6.58946 46.0539C6.52464 46.0893 6.46973 46.1403 6.42977 46.2024L5.62761 47.6664C5.59068 47.7342 5.53497 47.7899 5.46717 47.8268L4.00321 48.629C3.94112 48.669 3.89004 48.7239 3.85467 48.7887C3.81931 48.8535 3.80078 48.9262 3.80078 49C3.80078 49.0738 3.81931 49.1465 3.85467 49.2113C3.89004 49.2761 3.94112 49.331 4.00321 49.371L5.46717 50.1732C5.53497 50.2101 5.59068 50.2658 5.62761 50.3336L6.42977 51.7976C6.46973 51.8597 6.52464 51.9107 6.58946 51.9461C6.65428 51.9815 6.72694 52 6.80078 52C6.87462 52 6.94728 51.9815 7.0121 51.9461C7.07692 51.9107 7.13182 51.8597 7.17178 51.7976L7.9539 50.3336C7.99386 50.261 8.05759 50.2043 8.13439 50.1732L9.59835 49.371C9.66044 49.331 9.71151 49.2761 9.74688 49.2113C9.78224 49.1465 9.80078 49.0738 9.80078 49C9.80078 48.9262 9.78224 48.8535 9.74688 48.7887C9.71151 48.7239 9.66044 48.669 9.59835 48.629L8.34399 47.8558Z" fill="url(#paint0_linear_1_839)"/>
</g>
</g>
</g>
</g>
</g>
<g filter="url(#filter2_di_1_839)">
<path d="M38.7543 48H36.3566L35.4034 45.5204H31.0399L30.1389 48H27.8008L32.0526 37.0837H34.3833L38.7543 48ZM34.696 43.6812L33.1919 39.6304L31.7175 43.6812H34.696ZM39.7638 48V37.0837H41.9679V48H39.7638ZM50.5768 48V38.9304H47.3377V37.0837H56.0126V38.9304H52.7809V48H50.5768ZM58.4816 48H56.3892V40.092H58.3327V41.2164C58.6653 40.6853 58.9631 40.3353 59.2262 40.1665C59.4943 39.9977 59.7971 39.9133 60.1347 39.9133C60.6112 39.9133 61.0704 40.0449 61.5122 40.308L60.8644 42.1323C60.5119 41.904 60.1843 41.7898 59.8815 41.7898C59.5886 41.7898 59.3404 41.8717 59.1369 42.0355C58.9333 42.1944 58.772 42.4848 58.6529 42.9067C58.5387 43.3287 58.4816 44.2123 58.4816 45.5576V48ZM63.8844 42.5046L61.9856 42.1621C62.1991 41.3976 62.5664 40.8317 63.0876 40.4644C63.6089 40.097 64.3833 39.9133 65.4109 39.9133C66.3442 39.9133 67.0391 40.025 67.4958 40.2484C67.9526 40.4668 68.2727 40.7473 68.4564 41.0898C68.6451 41.4274 68.7394 42.0504 68.7394 42.9589L68.717 45.4012C68.717 46.0962 68.7493 46.61 68.8138 46.9426C68.8833 47.2703 69.0099 47.6227 69.1936 48H67.1235C67.0689 47.861 67.0019 47.655 66.9225 47.382C66.8877 47.2579 66.8629 47.1759 66.848 47.1362C66.4906 47.4837 66.1084 47.7443 65.7013 47.9181C65.2942 48.0918 64.8599 48.1787 64.3982 48.1787C63.5841 48.1787 62.9412 47.9578 62.4696 47.516C62.003 47.0742 61.7697 46.5157 61.7697 45.8406C61.7697 45.3938 61.8764 44.9967 62.0898 44.6492C62.3033 44.2967 62.6012 44.0286 62.9834 43.845C63.3706 43.6563 63.9266 43.4925 64.6514 43.3535C65.6293 43.1698 66.3069 42.9986 66.6842 42.8397V42.6312C66.6842 42.2291 66.5849 41.9437 66.3864 41.7749C66.1878 41.6012 65.813 41.5143 65.262 41.5143C64.8896 41.5143 64.5992 41.5887 64.3907 41.7377C64.1823 41.8816 64.0135 42.1373 63.8844 42.5046ZM66.6842 44.2024C66.4161 44.2917 65.9917 44.3985 65.4109 44.5226C64.8301 44.6467 64.4503 44.7683 64.2716 44.8875C63.9986 45.0811 63.8621 45.3268 63.8621 45.6246C63.8621 45.9175 63.9713 46.1707 64.1897 46.3842C64.4081 46.5976 64.6861 46.7043 65.0237 46.7043C65.401 46.7043 65.7609 46.5802 66.1034 46.332C66.3566 46.1434 66.5229 45.9126 66.6023 45.6395C66.6569 45.4608 66.6842 45.1208 66.6842 44.6194V44.2024ZM72.8838 48L69.6968 40.092H71.8934L73.3827 44.1279L73.8146 45.4757C73.9287 45.1332 74.0007 44.9073 74.0305 44.7981C74.1 44.5747 74.1745 44.3513 74.2539 44.1279L75.758 40.092H77.91L74.7677 48H72.8838ZM83.6777 45.4832L85.7626 45.8331C85.4946 46.5976 85.0701 47.1809 84.4893 47.583C83.9135 47.9801 83.1912 48.1787 82.3225 48.1787C80.9474 48.1787 79.9297 47.7295 79.2695 46.8309C78.7482 46.1111 78.4876 45.2027 78.4876 44.1056C78.4876 42.795 78.8302 41.7699 79.5152 41.0303C80.2003 40.2856 81.0665 39.9133 82.114 39.9133C83.2905 39.9133 84.2188 40.303 84.8989 41.0824C85.579 41.8568 85.9041 43.0457 85.8743 44.6492H80.6322C80.647 45.2697 80.8158 45.7537 81.1385 46.1012C81.4612 46.4437 81.8633 46.615 82.3448 46.615C82.6724 46.615 82.9479 46.5256 83.1713 46.3469C83.3947 46.1682 83.5635 45.8803 83.6777 45.4832ZM83.7968 43.3684C83.7819 42.7628 83.6256 42.3036 83.3277 41.9908C83.0299 41.6731 82.6675 41.5143 82.2406 41.5143C81.7838 41.5143 81.4066 41.6806 81.1087 42.0132C80.8109 42.3458 80.6644 42.7975 80.6694 43.3684H83.7968ZM87.487 48V37.0837H89.5794V48H87.487Z" fill="url(#paint1_linear_1_839)"/>
</g>
</g>
<defs>
<filter id="filter0_di_1_839" x="-2.82422" y="29.5833" width="31.25" height="31.25" filterUnits="userSpaceOnUse" color-interpolation-filters="sRGB">
<feFlood flood-opacity="0" result="BackgroundImageFix"/>
<feColorMatrix in="SourceAlpha" type="matrix" values="0 0 0 0 0 0 0 0 0 0 0 0 0 0 0 0 0 0 127 0" result="hardAlpha"/>
<feOffset dy="2.20833"/>
<feGaussianBlur stdDeviation="3.3125"/>
<feComposite in2="hardAlpha" operator="out"/>
<feColorMatrix type="matrix" values="0 0 0 0 0.533333 0 0 0 0 0.478431 0 0 0 0 0.341176 0 0 0 1 0"/>
<feBlend mode="normal" in2="BackgroundImageFix" result="effect1_dropShadow_1_839"/>
<feBlend mode="normal" in="SourceGraphic" in2="effect1_dropShadow_1_839" result="shape"/>
<feColorMatrix in="SourceAlpha" type="matrix" values="0 0 0 0 0 0 0 0 0 0 0 0 0 0 0 0 0 0 127 0" result="hardAlpha"/>
<feOffset dy="1.10417"/>
<feGaussianBlur stdDeviation="0.552083"/>
<feComposite in2="hardAlpha" operator="arithmetic" k2="-1" k3="1"/>
<feColorMatrix type="matrix" values="0 0 0 0 0.533333 0 0 0 0 0.478431 0 0 0 0 0.341176 0 0 0 1 0"/>
<feBlend mode="normal" in2="shape" result="effect2_innerShadow_1_839"/>
</filter>
<filter id="filter1_di_1_839" x="-2.82422" y="29.5833" width="31.25" height="31.25" filterUnits="userSpaceOnUse" color-interpolation-filters="sRGB">
<feFlood flood-opacity="0" result="BackgroundImageFix"/>
<feColorMatrix in="SourceAlpha" type="matrix" values="0 0 0 0 0 0 0 0 0 0 0 0 0 0 0 0 0 0 127 0" result="hardAlpha"/>
<feOffset dy="2.20833"/>
<feGaussianBlur stdDeviation="3.3125"/>
<feComposite in2="hardAlpha" operator="out"/>
<feColorMatrix type="matrix" values="0 0 0 0 0.533333 0 0 0 0 0.478431 0 0 0 0 0.341176 0 0 0 1 0"/>
<feBlend mode="normal" in2="BackgroundImageFix" result="effect1_dropShadow_1_839"/>
<feBlend mode="normal" in="SourceGraphic" in2="effect1_dropShadow_1_839" result="shape"/>
<feColorMatrix in="SourceAlpha" type="matrix" values="0 0 0 0 0 0 0 0 0 0 0 0 0 0 0 0 0 0 127 0" result="hardAlpha"/>
<feOffset dy="1.10417"/>
<feGaussianBlur stdDeviation="0.552083"/>
<feComposite in2="hardAlpha" operator="arithmetic" k2="-1" k3="1"/>
<feColorMatrix type="matrix" values="0 0 0 0 0.533333 0 0 0 0 0.478431 0 0 0 0 0.341176 0 0 0 1 0"/>
<feBlend mode="normal" in2="shape" result="effect2_innerShadow_1_839"/>
</filter>
<filter id="filter2_di_1_839" x="21.1758" y="32.6673" width="75.0293" height="24.3457" filterUnits="userSpaceOnUse" color-interpolation-filters="sRGB">
<feFlood flood-opacity="0" result="BackgroundImageFix"/>
<feColorMatrix in="SourceAlpha" type="matrix" values="0 0 0 0 0 0 0 0 0 0 0 0 0 0 0 0 0 0 127 0" result="hardAlpha"/>
<feOffset dy="2.20833"/>
<feGaussianBlur stdDeviation="3.3125"/>
<feComposite in2="hardAlpha" operator="out"/>
<feColorMatrix type="matrix" values="0 0 0 0 0.533333 0 0 0 0 0.478431 0 0 0 0 0.341176 0 0 0 1 0"/>
<feBlend mode="normal" in2="BackgroundImageFix" result="effect1_dropShadow_1_839"/>
<feBlend mode="normal" in="SourceGraphic" in2="effect1_dropShadow_1_839" result="shape"/>
<feColorMatrix in="SourceAlpha" type="matrix" values="0 0 0 0 0 0 0 0 0 0 0 0 0 0 0 0 0 0 127 0" result="hardAlpha"/>
<feOffset dy="1.10417"/>
<feGaussianBlur stdDeviation="0.552083"/>
<feComposite in2="hardAlpha" operator="arithmetic" k2="-1" k3="1"/>
<feColorMatrix type="matrix" values="0 0 0 0 0.533333 0 0 0 0 0.478431 0 0 0 0 0.341176 0 0 0 1 0"/>
<feBlend mode="normal" in2="shape" result="effect2_innerShadow_1_839"/>
</filter>
<linearGradient id="paint0_linear_1_839" x1="5.67808" y1="15.3333" x2="39.5061" y2="29.9022" gradientUnits="userSpaceOnUse">
<stop stop-color="#A96F44"/>
<stop offset="1" stop-color="#F2ECB6"/>
</linearGradient>
<linearGradient id="paint1_linear_1_839" x1="34.3713" y1="9.18518" x2="90.0467" y2="77.8494" gradientUnits="userSpaceOnUse">
<stop stop-color="#A96F44"/>
<stop offset="1" stop-color="#F2ECB6"/>
</linearGradient>
<clipPath id="clip0_1_839">
<rect width="97.72" height="86" fill="white" transform="translate(0.800781)"/>
</clipPath>
<clipPath id="clip1_1_839">
<rect width="24" height="24" fill="white" transform="translate(0.800781 31)"/>
</clipPath>
<clipPath id="clip2_1_839">
<rect width="24" height="24" fill="white" transform="translate(0.800781 31)"/>
</clipPath>
<clipPath id="clip3_1_839">
<rect width="24" height="24" fill="white" transform="translate(0.800781 31)"/>
</clipPath>
</defs>
</svg>
